<svg width="30" height="31" viewBox="0 0 30 31" fill="none" xmlns="http://www.w3.org/2000/svg">
<path d="M7.5 1.75V4.25H6.25C4.8625 4.25 3.75 5.3625 3.75 6.75V24.25C3.75 25.625 4.8625 26.75 6.25 26.75H13.875C15.45 28.3 17.6125 29.25 20 29.25C24.8375 29.25 28.75 25.3375 28.75 20.5C28.75 18.1125 27.8 15.95 26.25 14.375V6.75C26.25 5.375 25.1375 4.25 23.75 4.25H22.5V1.75H20V4.25H10V1.75M6.25 6.75H23.75V9.25H6.25M6.25 11.75H23.75V12.5875C22.6125 12.05 21.3375 11.75 20 11.75C15.1625 11.75 11.25 15.6625 11.25 20.5C11.25 21.8375 11.55 23.1125 12.0875 24.25H6.25M20 14.4375C23.35 14.4375 26.0625 17.15 26.0625 20.5C26.0625 23.85 23.35 26.5625 20 26.5625C16.65 26.5625 13.9375 23.85 13.9375 20.5C13.9375 17.15 16.65 14.4375 20 14.4375ZM18.75 16.75V21.3625L22.7375 23.6625L23.675 22.0375L20.625 20.275V16.75H18.75Z" fill="white"/>
</svg>
