<svg width="23" height="24" viewBox="0 0 23 24" fill="none" xmlns="http://www.w3.org/2000/svg">
<path d="M21.3014 0.530029H1.63857C1.204 0.530029 0.787218 0.702664 0.479926 1.00996C0.172635 1.31725 0 1.73402 0 2.1686V21.8315C0 22.266 0.172635 22.6828 0.479926 22.9901C0.787218 23.2974 1.204 23.47 1.63857 23.47H21.3014C21.736 23.47 22.1528 23.2974 22.4601 22.9901C22.7674 22.6828 22.94 22.266 22.94 21.8315V2.1686C22.94 1.73402 22.7674 1.31725 22.4601 1.00996C22.1528 0.702664 21.736 0.530029 21.3014 0.530029ZM1.63857 1.62241H21.3014C21.4463 1.62241 21.5852 1.67996 21.6876 1.78239C21.7901 1.88482 21.8476 2.02374 21.8476 2.1686V11.4538H17.9964C17.8622 9.81499 17.1164 8.2866 15.9072 7.17234C14.6979 6.05808 13.1138 5.4395 11.4695 5.4395C9.82512 5.4395 8.24096 6.05808 7.03173 7.17234C5.82249 8.2866 5.07668 9.81499 4.94248 11.4538H1.09238V2.1686C1.09238 2.02374 1.14993 1.88482 1.25236 1.78239C1.35479 1.67996 1.49371 1.62241 1.63857 1.62241ZM16.9319 12C16.9319 13.0803 16.6116 14.1363 16.0114 15.0345C15.4112 15.9327 14.5582 16.6328 13.5602 17.0462C12.5621 17.4596 11.4639 17.5677 10.4044 17.357C9.34493 17.1462 8.37171 16.626 7.60785 15.8622C6.84399 15.0983 6.32379 14.1251 6.11304 13.0656C5.9023 12.0061 6.01046 10.9079 6.42386 9.90985C6.83726 8.91182 7.53732 8.05878 8.43553 7.45862C9.33373 6.85846 10.3897 6.53812 11.47 6.53812C12.9181 6.53971 14.3064 7.11567 15.3304 8.13964C16.3544 9.1636 16.9303 10.5519 16.9319 12ZM21.3014 22.3776H1.63857C1.49371 22.3776 1.35479 22.3201 1.25236 22.2177C1.14993 22.1152 1.09238 21.9763 1.09238 21.8315V12.5462H4.94357C5.07777 14.1851 5.82358 15.7135 7.03282 16.8277C8.24205 17.942 9.82621 18.5606 11.4705 18.5606C13.1149 18.5606 14.699 17.942 15.9083 16.8277C17.1175 15.7135 17.8633 14.1851 17.9975 12.5462H21.8476V21.8315C21.8476 21.9763 21.7901 22.1152 21.6876 22.2177C21.5852 22.3201 21.4463 22.3776 21.3014 22.3776Z" fill="white"/>
<path d="M11.47 8.1767C10.7138 8.1767 9.97461 8.40093 9.34587 8.82105C8.71712 9.24116 8.22708 9.83828 7.9377 10.5369C7.64832 11.2355 7.5726 12.0043 7.72013 12.7459C7.86765 13.4876 8.23179 14.1688 8.76649 14.7035C9.30119 15.2382 9.98245 15.6024 10.7241 15.7499C11.4658 15.8974 12.2345 15.8217 12.9331 15.5323C13.6317 15.243 14.2289 14.7529 14.649 14.1242C15.0691 13.4954 15.2933 12.7562 15.2933 12C15.2922 10.9864 14.889 10.0146 14.1722 9.29781C13.4555 8.58104 12.4837 8.17786 11.47 8.1767ZM11.47 14.731C10.9299 14.731 10.4019 14.5708 9.95276 14.2707C9.50366 13.9707 9.15362 13.5441 8.94692 13.0451C8.74022 12.5461 8.68614 11.997 8.79152 11.4672C8.89689 10.9375 9.15699 10.4509 9.53892 10.069C9.92085 9.68703 10.4075 9.42693 10.9372 9.32156C11.467 9.21618 12.0161 9.27026 12.5151 9.47696C13.0141 9.68366 13.4406 10.0337 13.7407 10.4828C14.0408 10.9319 14.2009 11.4599 14.2009 12C14.2001 12.7241 13.9121 13.4182 13.4001 13.9301C12.8881 14.4421 12.194 14.7301 11.47 14.731Z" fill="white"/>
<path d="M17.4781 5.99193H19.1167C19.5512 5.99193 19.968 5.81929 20.2753 5.512C20.5826 5.20471 20.7552 4.78793 20.7552 4.35336C20.7552 3.91878 20.5826 3.502 20.2753 3.19471C19.968 2.88742 19.5512 2.71479 19.1167 2.71479H17.4781C17.0435 2.71479 16.6267 2.88742 16.3194 3.19471C16.0122 3.502 15.8395 3.91878 15.8395 4.35336C15.8395 4.78793 16.0122 5.20471 16.3194 5.512C16.6267 5.81929 17.0435 5.99193 17.4781 5.99193ZM17.4781 3.80717H19.1167C19.2615 3.80717 19.4004 3.86471 19.5029 3.96714C19.6053 4.06957 19.6629 4.2085 19.6629 4.35336C19.6629 4.49822 19.6053 4.63714 19.5029 4.73957C19.4004 4.842 19.2615 4.89955 19.1167 4.89955H17.4781C17.3332 4.89955 17.1943 4.842 17.0919 4.73957C16.9894 4.63714 16.9319 4.49822 16.9319 4.35336C16.9319 4.2085 16.9894 4.06957 17.0919 3.96714C17.1943 3.86471 17.3332 3.80717 17.4781 3.80717Z" fill="white"/>
</svg>
