<svg width="197" height="44" viewBox="0 0 197 44" fill="none" xmlns="http://www.w3.org/2000/svg">
<g clip-path="url(#clip0_1619_486)">
<path fill-rule="evenodd" clip-rule="evenodd" d="M24.6149 0.974779C22.3503 -0.324926 19.5603 -0.324926 17.2957 0.974779L4.33146 8.41542C2.0669 9.71514 0.671875 12.1171 0.671875 14.7165V29.5978C0.671875 32.1972 2.0669 34.5991 4.33146 35.8989L17.2957 43.3396C19.5603 44.6392 22.3503 44.6392 24.6149 43.3396L37.5791 35.8989C39.8438 34.5991 41.2387 32.1972 41.2387 29.5978V14.7165C41.2387 12.1171 39.8438 9.71514 37.5791 8.41542L24.6149 0.974779ZM25.0195 27.0313C25.4353 27.0313 25.7723 27.3603 25.7723 27.766V30.1227C25.7723 30.5284 25.4353 30.8572 25.0195 30.8572H12.852C12.0724 30.8572 11.4405 30.2405 11.4405 29.4798V27.766C11.4405 27.3603 11.7775 27.0313 12.1933 27.0313H25.0195ZM28.086 18.2432C27.5841 17.9577 26.954 18.311 26.954 18.8779V30.1535C26.954 30.5594 27.2911 30.8882 27.7069 30.8882H29.7534C30.5331 30.8882 31.1649 30.2715 31.1649 29.5108V20.4169C31.1649 20.1556 31.0227 19.9139 30.7914 19.7822L28.086 18.2432ZM14.8985 25.8221C15.3143 25.8221 15.6514 25.4933 15.6514 25.0876V18.8446C15.6514 18.2789 15.0236 17.9254 14.5217 18.2086L11.8164 19.7352C11.5838 19.8665 11.4405 20.1089 11.4405 20.3712V25.0876C11.4405 25.4933 11.7775 25.8221 12.1933 25.8221H14.8985ZM12.131 14.281C11.7035 14.5294 11.4417 14.9791 11.4417 15.4646V17.3585C11.4417 17.9234 12.0677 18.277 12.5696 17.9955L20.9462 13.2977C21.1791 13.1671 21.4656 13.1675 21.6982 13.2987L30.0736 18.0249C30.5754 18.3081 31.2033 17.9546 31.2033 17.3889V15.4982C31.2033 15.014 30.9429 14.5654 30.5172 14.3166L21.7082 9.16514C21.4706 9.0262 21.1741 9.02579 20.9361 9.16408L12.131 14.281Z" fill="#152342"/>
<path d="M60.5356 22.1625C60.5356 21.3776 60.7077 20.6795 61.052 20.0682C61.396 19.4494 61.8742 18.9701 62.486 18.6305C63.1056 18.2834 63.8054 18.1098 64.5856 18.1098C65.5416 18.1098 66.36 18.3588 67.0407 18.8569C67.7215 19.355 68.1767 20.0343 68.406 20.8946H66.2491C66.0886 20.5625 65.859 20.3097 65.5607 20.1361C65.27 19.9626 64.9375 19.8758 64.5626 19.8758C63.9584 19.8758 63.4687 20.0833 63.0941 20.4984C62.7192 20.9135 62.532 21.4682 62.532 22.1625C62.532 22.8568 62.7192 23.4114 63.0941 23.8266C63.4687 24.2417 63.9584 24.4493 64.5626 24.4493C64.9375 24.4493 65.27 24.3625 65.5607 24.1889C65.859 24.0153 66.0886 23.7625 66.2491 23.4303H68.406C68.1767 24.2908 67.7215 24.97 67.0407 25.468C66.36 25.9585 65.5416 26.2039 64.5856 26.2039C63.8054 26.2039 63.1056 26.034 62.486 25.6944C61.8742 25.3473 61.396 24.8681 61.052 24.2569C60.7077 23.6454 60.5356 22.9474 60.5356 22.1625Z" fill="#152342"/>
<path d="M76.858 26.2275C76.1009 26.2275 75.4047 26.0539 74.7699 25.7068C74.1427 25.3596 73.6418 24.8767 73.2669 24.258C72.8998 23.6314 72.7163 22.9296 72.7163 22.1523C72.7163 21.3749 72.8998 20.6769 73.2669 20.058C73.6418 19.4392 74.1427 18.9562 74.7699 18.609C75.4047 18.2618 76.1009 18.0883 76.858 18.0883C77.6151 18.0883 78.3074 18.2618 78.9346 18.609C79.5694 18.9562 80.0666 19.4392 80.4261 20.058C80.7932 20.6769 80.9767 21.3749 80.9767 22.1523C80.9767 22.9296 80.7932 23.6314 80.4261 24.258C80.059 24.8767 79.5618 25.3596 78.9346 25.7068C78.3074 26.0539 77.6151 26.2275 76.858 26.2275ZM76.858 24.4616C77.5006 24.4616 78.013 24.2504 78.3953 23.8277C78.7856 23.405 78.9806 22.8466 78.9806 22.1523C78.9806 21.4504 78.7856 20.8919 78.3953 20.4768C78.013 20.0542 77.5006 19.8429 76.858 19.8429C76.2078 19.8429 75.6878 20.0504 75.2977 20.4655C74.9153 20.8806 74.7241 21.4428 74.7241 22.1523C74.7241 22.8541 74.9153 23.4164 75.2977 23.8389C75.6878 24.2541 76.2078 24.4616 76.858 24.4616Z" fill="#152342"/>
<path d="M92.7179 26.1471H90.7558L87.4748 21.2454V26.1471H85.5127V18.2002H87.4748L90.7558 23.1245V18.2002H92.7179V26.1471Z" fill="#152342"/>
<path d="M103.371 18.2002V19.7511H101.237V26.1471H99.275V19.7511H97.1411V18.2002H103.371Z" fill="#152342"/>
<path d="M109.762 19.7511V21.3586H112.39V22.8529H109.762V24.5963H112.734V26.1471H107.8V18.2002H112.734V19.7511H109.762Z" fill="#152342"/>
<path d="M124.656 26.1471H122.694L119.413 21.2454V26.1471H117.451V18.2002H119.413L122.694 23.1245V18.2002H124.656V26.1471Z" fill="#152342"/>
<path d="M135.309 18.2002V19.7511H133.175V26.1471H131.213V19.7511H129.079V18.2002H135.309Z" fill="#152342"/>
<path d="M152.586 18.2002V26.1471H150.624V22.8755H147.573V26.1471H145.611V18.2002H147.573V21.3133H150.624V18.2002H152.586Z" fill="#152342"/>
<path d="M161.254 26.2275C160.497 26.2275 159.801 26.0539 159.166 25.7068C158.539 25.3596 158.038 24.8767 157.663 24.258C157.296 23.6314 157.112 22.9296 157.112 22.1523C157.112 21.3749 157.296 20.6769 157.663 20.058C158.038 19.4392 158.539 18.9562 159.166 18.609C159.801 18.2618 160.497 18.0883 161.254 18.0883C162.011 18.0883 162.703 18.2618 163.331 18.609C163.966 18.9562 164.463 19.4392 164.822 20.058C165.189 20.6769 165.373 21.3749 165.373 22.1523C165.373 22.9296 165.189 23.6314 164.822 24.258C164.455 24.8767 163.958 25.3596 163.331 25.7068C162.703 26.0539 162.011 26.2275 161.254 26.2275ZM161.254 24.4616C161.897 24.4616 162.409 24.2504 162.791 23.8277C163.182 23.405 163.377 22.8466 163.377 22.1523C163.377 21.4504 163.182 20.8919 162.791 20.4768C162.409 20.0542 161.897 19.8429 161.254 19.8429C160.604 19.8429 160.084 20.0504 159.694 20.4655C159.311 20.8806 159.12 21.4428 159.12 22.1523C159.12 22.8541 159.311 23.4164 159.694 23.8389C160.084 24.2541 160.604 24.4616 161.254 24.4616Z" fill="#152342"/>
<path d="M171.832 18.2002V22.9548C171.832 23.4301 171.951 23.7963 172.188 24.0528C172.425 24.3095 172.773 24.4376 173.232 24.4376C173.691 24.4376 174.042 24.3095 174.287 24.0528C174.532 23.7963 174.654 23.4301 174.654 22.9548V18.2002H176.616V22.9434C176.616 23.6528 176.463 24.2528 176.157 24.7435C175.851 25.2339 175.438 25.6038 174.918 25.8527C174.406 26.1018 173.832 26.2263 173.197 26.2263C172.562 26.2263 171.993 26.1055 171.488 25.8642C170.991 25.6151 170.597 25.2452 170.306 24.7547C170.015 24.2567 169.87 23.6528 169.87 22.9434V18.2002H171.832Z" fill="#152342"/>
<path d="M184.351 26.2275C183.762 26.2275 183.234 26.1332 182.768 25.9447C182.301 25.7559 181.926 25.4767 181.643 25.1068C181.368 24.7371 181.223 24.2919 181.208 23.7712H183.296C183.326 24.0653 183.429 24.2919 183.605 24.4504C183.781 24.6012 184.011 24.6768 184.294 24.6768C184.584 24.6768 184.814 24.6125 184.982 24.4843C185.15 24.3484 185.234 24.1636 185.234 23.9296C185.234 23.7333 185.166 23.5712 185.028 23.4428C184.898 23.3145 184.734 23.2089 184.535 23.1258C184.343 23.0429 184.068 22.9485 183.708 22.8428C183.188 22.6843 182.764 22.5258 182.435 22.3674C182.106 22.2089 181.823 21.9749 181.586 21.6655C181.349 21.3561 181.23 20.9523 181.23 20.4542C181.23 19.7146 181.502 19.1373 182.045 18.7222C182.588 18.2996 183.296 18.0883 184.168 18.0883C185.055 18.0883 185.77 18.2996 186.313 18.7222C186.856 19.1373 187.147 19.7184 187.185 20.4655H185.062C185.047 20.2089 184.952 20.0089 184.776 19.8656C184.6 19.7146 184.374 19.6391 184.099 19.6391C183.862 19.6391 183.67 19.7033 183.525 19.8316C183.38 19.9524 183.307 20.1297 183.307 20.3636C183.307 20.6202 183.429 20.8202 183.674 20.9636C183.919 21.107 184.301 21.2617 184.821 21.4278C185.342 21.6013 185.762 21.7674 186.084 21.9259C186.412 22.0843 186.695 22.3145 186.932 22.6164C187.17 22.9183 187.288 23.3069 187.288 23.7824C187.288 24.2352 187.17 24.6465 186.932 25.0163C186.703 25.386 186.366 25.6804 185.923 25.8994C185.479 26.1182 184.955 26.2275 184.351 26.2275Z" fill="#152342"/>
<path d="M193.897 19.7511V21.3586H196.525V22.8529H193.897V24.5963H196.869V26.1471H191.936V18.2002H196.869V19.7511H193.897Z" fill="#152342"/>
</g>
<defs>
<clipPath id="clip0_1619_486">
<rect width="197" height="44" fill="white"/>
</clipPath>
</defs>
</svg>
