<svg width="216" height="48" viewBox="0 0 216 48" fill="none" xmlns="http://www.w3.org/2000/svg">
<g clip-path="url(#clip0_1185_757)">
<path fill-rule="evenodd" clip-rule="evenodd" d="M26.9886 1.54124C24.5056 0.15292 21.4465 0.15292 18.9635 1.54124L4.74887 9.4892C2.2659 10.8775 0.736328 13.4433 0.736328 16.2199V32.1158C0.736328 34.8925 2.2659 37.4582 4.74887 38.8466L18.9635 46.7946C21.4465 48.1828 24.5056 48.1828 26.9886 46.7946L41.2031 38.8466C43.6863 37.4582 45.2157 34.8925 45.2157 32.1158V16.2199C45.2157 13.4433 43.6863 10.8775 41.2031 9.4892L26.9886 1.54124ZM27.4322 29.3743C27.8881 29.3743 28.2576 29.7258 28.2576 30.1591V32.6765C28.2576 33.1099 27.8881 33.4611 27.4322 33.4611H14.0912C13.2364 33.4611 12.5435 32.8023 12.5435 31.9898V30.1591C12.5435 29.7258 12.9131 29.3743 13.3689 29.3743H27.4322ZM30.7944 19.9871C30.2442 19.6821 29.5532 20.0595 29.5532 20.665V32.7094C29.5532 33.143 29.9229 33.4942 30.3788 33.4942H32.6227C33.4776 33.4942 34.1703 32.8354 34.1703 32.0229V22.309C34.1703 22.0298 34.0144 21.7716 33.7607 21.631L30.7944 19.9871ZM16.3351 28.0827C16.791 28.0827 17.1605 27.7315 17.1605 27.2981V20.6295C17.1605 20.0251 16.4722 19.6476 15.9219 19.9501L12.9558 21.5808C12.7006 21.721 12.5435 21.9799 12.5435 22.2601V27.2981C12.5435 27.7315 12.9131 28.0827 13.3689 28.0827H16.3351ZM13.3007 15.7548C12.832 16.0201 12.5448 16.5004 12.5448 17.019V19.0421C12.5448 19.6455 13.2312 20.0231 13.7815 19.7225L22.9661 14.7044C23.2214 14.5649 23.5356 14.5653 23.7905 14.7054L32.9737 19.7538C33.524 20.0563 34.2124 19.6788 34.2124 19.0745V17.0549C34.2124 16.5377 33.9269 16.0585 33.4602 15.7927L23.8016 10.29C23.5411 10.1416 23.2159 10.1412 22.955 10.2889L13.3007 15.7548Z" fill="white"/>
<path d="M66.374 24.1737C66.374 23.3354 66.5627 22.5897 66.9402 21.9367C67.3174 21.2756 67.8417 20.7637 68.5125 20.401C69.1918 20.0301 69.9592 19.8447 70.8146 19.8447C71.8628 19.8447 72.7601 20.1107 73.5065 20.6428C74.2529 21.1749 74.752 21.9004 75.0034 22.8194H72.6385C72.4625 22.4647 72.2108 22.1946 71.8838 22.0092C71.565 21.8238 71.2004 21.7311 70.7893 21.7311C70.1269 21.7311 69.59 21.9528 69.1792 22.3962C68.7682 22.8396 68.5629 23.4321 68.5629 24.1737C68.5629 24.9154 68.7682 25.5078 69.1792 25.9513C69.59 26.3947 70.1269 26.6164 70.7893 26.6164C71.2004 26.6164 71.565 26.5237 71.8838 26.3383C72.2108 26.1529 72.4625 25.8829 72.6385 25.528H75.0034C74.752 26.4472 74.2529 27.1727 73.5065 27.7047C72.7601 28.2285 71.8628 28.4907 70.8146 28.4907C69.9592 28.4907 69.1918 28.3092 68.5125 27.9465C67.8417 27.5757 67.3174 27.0638 66.9402 26.4109C66.5627 25.7578 66.374 25.0121 66.374 24.1737Z" fill="white"/>
<path d="M84.2706 28.516C83.4405 28.516 82.6771 28.3306 81.9811 27.9597C81.2935 27.5889 80.7442 27.0731 80.3332 26.4121C79.9307 25.7428 79.7295 24.9932 79.7295 24.1629C79.7295 23.3325 79.9307 22.5869 80.3332 21.9258C80.7442 21.2648 81.2935 20.7488 81.9811 20.378C82.6771 20.0072 83.4405 19.8218 84.2706 19.8218C85.1008 19.8218 85.8598 20.0072 86.5475 20.378C87.2435 20.7488 87.7887 21.2648 88.1829 21.9258C88.5853 22.5869 88.7866 23.3325 88.7866 24.1629C88.7866 24.9932 88.5853 25.7428 88.1829 26.4121C87.7804 27.0731 87.2352 27.5889 86.5475 27.9597C85.8598 28.3306 85.1008 28.516 84.2706 28.516ZM84.2706 26.6297C84.9752 26.6297 85.537 26.404 85.9562 25.9525C86.3841 25.501 86.5979 24.9045 86.5979 24.1629C86.5979 23.4132 86.3841 22.8166 85.9562 22.3732C85.537 21.9218 84.9752 21.6961 84.2706 21.6961C83.5577 21.6961 82.9876 21.9177 82.5599 22.3611C82.1405 22.8045 81.931 23.4051 81.931 24.1629C81.931 24.9126 82.1405 25.5132 82.5599 25.9645C82.9876 26.408 83.5577 26.6297 84.2706 26.6297Z" fill="white"/>
<path d="M101.66 28.4296H99.5086L95.9111 23.1937V28.4296H93.7598V19.9409H95.9111L99.5086 25.201V19.9409H101.66V28.4296Z" fill="white"/>
<path d="M113.34 19.9409V21.5975H111V28.4296H108.849V21.5975H106.51V19.9409H113.34Z" fill="white"/>
<path d="M120.348 21.5975V23.3147H123.229V24.9108H120.348V26.7731H123.606V28.4296H118.197V19.9409H123.606V21.5975H120.348Z" fill="white"/>
<path d="M136.679 28.4296H134.528L130.93 23.1937V28.4296H128.779V19.9409H130.93L134.528 25.201V19.9409H136.679V28.4296Z" fill="white"/>
<path d="M148.359 19.9409V21.5975H146.019V28.4296H143.868V21.5975H141.528V19.9409H148.359Z" fill="white"/>
<path d="M167.303 19.9409V28.4296H165.151V24.935H161.805V28.4296H159.654V19.9409H161.805V23.2663H165.151V19.9409H167.303Z" fill="white"/>
<path d="M176.807 28.516C175.977 28.516 175.214 28.3306 174.517 27.9597C173.83 27.5889 173.28 27.0731 172.87 26.4121C172.467 25.7428 172.266 24.9932 172.266 24.1629C172.266 23.3325 172.467 22.5869 172.87 21.9258C173.28 21.2648 173.83 20.7488 174.517 20.378C175.214 20.0072 175.977 19.8218 176.807 19.8218C177.637 19.8218 178.396 20.0072 179.084 20.378C179.78 20.7488 180.325 21.2648 180.719 21.9258C181.122 22.5869 181.323 23.3325 181.323 24.1629C181.323 24.9932 181.122 25.7428 180.719 26.4121C180.317 27.0731 179.771 27.5889 179.084 27.9597C178.396 28.3306 177.637 28.516 176.807 28.516ZM176.807 26.6297C177.511 26.6297 178.073 26.404 178.493 25.9525C178.92 25.501 179.134 24.9045 179.134 24.1629C179.134 23.4132 178.92 22.8166 178.493 22.3732C178.073 21.9218 177.511 21.6961 176.807 21.6961C176.094 21.6961 175.524 21.9177 175.096 22.3611C174.677 22.8045 174.467 23.4051 174.467 24.1629C174.467 24.9126 174.677 25.5132 175.096 25.9645C175.524 26.408 176.094 26.6297 176.807 26.6297Z" fill="white"/>
<path d="M188.405 19.9409V25.0196C188.405 25.5274 188.535 25.9186 188.795 26.1926C189.055 26.4668 189.437 26.6036 189.94 26.6036C190.443 26.6036 190.829 26.4668 191.097 26.1926C191.365 25.9186 191.5 25.5274 191.5 25.0196V19.9409H193.651V25.0076C193.651 25.7653 193.483 26.4062 193.148 26.9303C192.812 27.4542 192.359 27.8493 191.789 28.1152C191.227 28.3813 190.598 28.5142 189.902 28.5142C189.206 28.5142 188.581 28.3852 188.028 28.1274C187.482 27.8613 187.051 27.4662 186.732 26.9423C186.413 26.4104 186.254 25.7653 186.254 25.0076V19.9409H188.405Z" fill="white"/>
<path d="M202.131 28.516C201.485 28.516 200.907 28.4152 200.395 28.2138C199.884 28.0122 199.473 27.714 199.162 27.3189C198.861 26.924 198.701 26.4484 198.685 25.8922H200.974C201.008 26.2064 201.121 26.4484 201.313 26.6177C201.506 26.7788 201.758 26.8595 202.068 26.8595C202.387 26.8595 202.639 26.7908 202.823 26.654C203.008 26.5088 203.1 26.3113 203.1 26.0614C203.1 25.8517 203.024 25.6786 202.873 25.5415C202.731 25.4044 202.551 25.2915 202.333 25.2027C202.123 25.1142 201.821 25.0134 201.427 24.9005C200.857 24.7312 200.391 24.5619 200.03 24.3926C199.67 24.2233 199.36 23.9734 199.1 23.6429C198.84 23.3124 198.71 22.8811 198.71 22.349C198.71 21.559 199.007 20.9423 199.603 20.4989C200.198 20.0475 200.974 19.8218 201.93 19.8218C202.903 19.8218 203.687 20.0475 204.282 20.4989C204.878 20.9423 205.196 21.563 205.238 22.3611H202.911C202.894 22.087 202.79 21.8734 202.597 21.7203C202.404 21.559 202.156 21.4784 201.855 21.4784C201.595 21.4784 201.385 21.5469 201.225 21.684C201.066 21.813 200.986 22.0024 200.986 22.2523C200.986 22.5264 201.121 22.74 201.389 22.8932C201.657 23.0464 202.077 23.2116 202.647 23.389C203.217 23.5744 203.679 23.7517 204.031 23.921C204.392 24.0903 204.702 24.3362 204.962 24.6587C205.222 24.9811 205.352 25.3963 205.352 25.9042C205.352 26.3879 205.222 26.8271 204.962 27.2222C204.71 27.6171 204.341 27.9315 203.855 28.1655C203.368 28.3993 202.794 28.516 202.131 28.516Z" fill="white"/>
<path d="M212.598 21.5975V23.3147H215.479V24.9108H212.598V26.7731H215.856V28.4296H210.447V19.9409H215.856V21.5975H212.598Z" fill="white"/>
</g>
<defs>
<clipPath id="clip0_1185_757">
<rect width="216" height="47" fill="white" transform="translate(0 0.5)"/>
</clipPath>
</defs>
</svg>
