<svg width="28" height="25" viewBox="0 0 28 25" fill="none" xmlns="http://www.w3.org/2000/svg">
<path d="M20.7856 22.4507C20.941 22.7434 21.3042 22.8547 21.5969 22.6993C21.8896 22.544 22.0009 22.1807 21.8455 21.8881L20.7856 22.4507ZM20.9212 20.5792L20.3212 20.5775V20.5781L20.9212 20.5792ZM20.9766 1L21.5766 1.0017C21.577 0.842273 21.514 0.689225 21.4014 0.576336C21.2889 0.463447 21.136 0.4 20.9766 0.4V1ZM1.05534 1V0.4C0.724635 0.4 0.456281 0.667597 0.455346 0.998304L1.05534 1ZM1.00001 20.5792L0.400008 20.5775L0.400007 20.5781L1.00001 20.5792ZM4.41983 24V23.4L4.41874 23.4L4.41983 24ZM24.341 24.6C24.6724 24.6 24.941 24.3314 24.941 24C24.941 23.6686 24.6724 23.4 24.341 23.4V24.6ZM20.9766 8.60427C20.6452 8.60427 20.3766 8.8729 20.3766 9.20427C20.3766 9.53564 20.6452 9.80427 20.9766 9.80427V8.60427ZM27.1448 9.20427H27.7448C27.7448 8.8729 27.4761 8.60427 27.1448 8.60427V9.20427ZM24.4286 23.4C24.0972 23.4 23.8286 23.6686 23.8286 24C23.8286 24.3314 24.0972 24.6 24.4286 24.6V23.4ZM9.62147 15.8348C9.95284 15.8348 10.2215 15.5661 10.2215 15.2348C10.2215 14.9034 9.95284 14.6348 9.62147 14.6348V15.8348ZM4.57475 14.6348C4.24338 14.6348 3.97475 14.9034 3.97475 15.2348C3.97475 15.5661 4.24338 15.8348 4.57475 15.8348V14.6348ZM17.1915 15.8348C17.5229 15.8348 17.7915 15.5661 17.7915 15.2348C17.7915 14.9034 17.5229 14.6348 17.1915 14.6348V15.8348ZM12.1448 14.6348C11.8135 14.6348 11.5448 14.9034 11.5448 15.2348C11.5448 15.5661 11.8135 15.8348 12.1448 15.8348V14.6348ZM9.62147 18.1488C9.95284 18.1488 10.2215 17.8802 10.2215 17.5488C10.2215 17.2174 9.95284 16.9488 9.62147 16.9488V18.1488ZM4.57475 16.9488C4.24338 16.9488 3.97475 17.2174 3.97475 17.5488C3.97475 17.8802 4.24338 18.1488 4.57475 18.1488V16.9488ZM17.1915 18.1488C17.5229 18.1488 17.7915 17.8802 17.7915 17.5488C17.7915 17.2174 17.5229 16.9488 17.1915 16.9488V18.1488ZM12.1448 16.9488C11.8135 16.9488 11.5448 17.2174 11.5448 17.5488C11.5448 17.8802 11.8135 18.1488 12.1448 18.1488V16.9488ZM9.62147 20.3927C9.95284 20.3927 10.2215 20.1241 10.2215 19.7927C10.2215 19.4613 9.95284 19.1927 9.62147 19.1927V20.3927ZM4.57475 19.1927C4.24338 19.1927 3.97475 19.4613 3.97475 19.7927C3.97475 20.1241 4.24338 20.3927 4.57475 20.3927V19.1927ZM17.1915 20.3927C17.5229 20.3927 17.7915 20.1241 17.7915 19.7927C17.7915 19.4613 17.5229 19.1927 17.1915 19.1927V20.3927ZM12.1448 19.1927C11.8135 19.1927 11.5448 19.4613 11.5448 19.7927C11.5448 20.1241 11.8135 20.3927 12.1448 20.3927V19.1927ZM9.62147 13.5909C9.95284 13.5909 10.2215 13.3222 10.2215 12.9909C10.2215 12.6595 9.95284 12.3909 9.62147 12.3909V13.5909ZM4.57475 12.3909C4.24338 12.3909 3.97475 12.6595 3.97475 12.9909C3.97475 13.3222 4.24338 13.5909 4.57475 13.5909V12.3909ZM17.1915 13.5909C17.5229 13.5909 17.7915 13.3222 17.7915 12.9909C17.7915 12.6595 17.5229 12.3909 17.1915 12.3909V13.5909ZM12.1448 12.3909C11.8135 12.3909 11.5448 12.6595 11.5448 12.9909C11.5448 13.3222 11.8135 13.5909 12.1448 13.5909V12.3909ZM9.62147 11.4171C9.95284 11.4171 10.2215 11.1484 10.2215 10.8171C10.2215 10.4857 9.95284 10.2171 9.62147 10.2171V11.4171ZM4.57475 10.2171C4.24338 10.2171 3.97475 10.4857 3.97475 10.8171C3.97475 11.1484 4.24338 11.4171 4.57475 11.4171V10.2171ZM17.1915 11.4171C17.5229 11.4171 17.7915 11.1484 17.7915 10.8171C17.7915 10.4857 17.5229 10.2171 17.1915 10.2171V11.4171ZM12.1448 10.2171C11.8135 10.2171 11.5448 10.4857 11.5448 10.8171C11.5448 11.1484 11.8135 11.4171 12.1448 11.4171V10.2171ZM17.1915 8.26159C17.5229 8.26159 17.7915 7.99296 17.7915 7.66159C17.7915 7.33021 17.5229 7.06159 17.1915 7.06159V8.26159ZM4.57475 7.06159C4.24338 7.06159 3.97475 7.33021 3.97475 7.66159C3.97475 7.99296 4.24338 8.26159 4.57475 8.26159V7.06159ZM17.1915 5.17622C17.5229 5.17622 17.7915 4.90759 17.7915 4.57622C17.7915 4.24485 17.5229 3.97622 17.1915 3.97622V5.17622ZM4.57475 3.97622C4.24338 3.97622 3.97475 4.24485 3.97475 4.57622C3.97475 4.90759 4.24338 5.17622 4.57475 5.17622V3.97622ZM21.8455 21.8881C21.6318 21.4854 21.5204 21.0362 21.5212 20.5802L20.3212 20.5781C20.32 21.2309 20.4795 21.8741 20.7856 22.4507L21.8455 21.8881ZM21.5212 20.5808L21.5766 1.0017L20.3766 0.998304L20.3212 20.5775L21.5212 20.5808ZM20.9766 0.4H1.05534V1.6H20.9766V0.4ZM0.455346 0.998304L0.400008 20.5775L1.6 20.5808L1.65534 1.0017L0.455346 0.998304ZM0.400007 20.5781C0.399052 21.1065 0.502393 21.6299 0.704112 22.1183L1.81323 21.6602C1.6718 21.3178 1.59934 20.9507 1.6 20.5802L0.400007 20.5781ZM0.704112 22.1183C0.905828 22.6067 1.20195 23.0504 1.57551 23.4241L2.42416 22.5757C2.16228 22.3137 1.95466 22.0026 1.81323 21.6602L0.704112 22.1183ZM1.57551 23.4241C1.94907 23.7977 2.39271 24.094 2.88099 24.2958L3.33932 23.1867C2.99704 23.0453 2.68604 22.8376 2.42416 22.5757L1.57551 23.4241ZM2.88099 24.2958C3.36927 24.4975 3.89258 24.6009 4.42091 24.6L4.41874 23.4C4.04842 23.4007 3.6816 23.3282 3.33932 23.1867L2.88099 24.2958ZM4.41983 24.6H24.341V23.4H4.41983V24.6ZM20.9766 9.80427H27.1448V8.60427H20.9766V9.80427ZM26.5448 9.20427V21.2666H27.7448V9.20427H26.5448ZM26.5448 21.2666C26.5448 21.8337 26.3209 22.3767 25.9236 22.7765L26.7748 23.6223C27.3963 22.9969 27.7448 22.1495 27.7448 21.2666H26.5448ZM25.9236 22.7765C25.5264 23.1762 24.9886 23.4 24.4286 23.4V24.6C25.3093 24.6 26.1532 24.2479 26.7748 23.6223L25.9236 22.7765ZM9.62147 14.6348H4.57475V15.8348H9.62147V14.6348ZM17.1915 14.6348H12.1448V15.8348H17.1915V14.6348ZM9.62147 16.9488H4.57475V18.1488H9.62147V16.9488ZM17.1915 16.9488H12.1448V18.1488H17.1915V16.9488ZM9.62147 19.1927H4.57475V20.3927H9.62147V19.1927ZM17.1915 19.1927H12.1448V20.3927H17.1915V19.1927ZM9.62147 12.3909H4.57475V13.5909H9.62147V12.3909ZM17.1915 12.3909H12.1448V13.5909H17.1915V12.3909ZM9.62147 10.2171H4.57475V11.4171H9.62147V10.2171ZM17.1915 10.2171H12.1448V11.4171H17.1915V10.2171ZM17.1915 7.06159H4.57475V8.26159H17.1915V7.06159ZM17.1915 3.97622H4.57475V5.17622H17.1915V3.97622Z" fill="white"/>
</svg>
