<svg width="23" height="24" viewBox="0 0 23 24" fill="none" xmlns="http://www.w3.org/2000/svg">
<path d="M0 12.0001C0 12.2749 0.224015 12.4979 0.500015 12.4979H14.5C14.776 12.4979 15 12.2749 15 12.0001C15 11.7253 14.776 11.5023 14.5 11.5023H0.500015C0.224015 11.5023 0 11.7253 0 12.0001Z" fill="white"/>
<path d="M10.0012 1.04828V5.03072C10.0012 5.30551 10.2252 5.52855 10.5012 5.52855C10.7772 5.52855 11.0013 5.30551 11.0013 5.03072V1.04828C11.0013 0.773495 10.7772 0.550463 10.5012 0.550463C10.2252 0.550463 10.0012 0.773495 10.0012 1.04828Z" fill="white"/>
<path d="M10.0012 9.01325V14.9869C10.0012 15.2617 10.2252 15.4847 10.5012 15.4847C10.7772 15.4847 11.0013 15.2617 11.0013 14.9869V9.01325C11.0013 8.73846 10.7772 8.51542 10.5012 8.51542C10.2252 8.51542 10.0012 8.73846 10.0012 9.01325Z" fill="white"/>
<path d="M10.0012 18.9693V22.9518C10.0012 23.2266 10.2252 23.4496 10.5012 23.4496C10.7772 23.4496 11.0013 23.2266 11.0013 22.9518V18.9693C11.0013 18.6945 10.7772 18.4715 10.5012 18.4715C10.2252 18.4715 10.0012 18.6945 10.0012 18.9693Z" fill="white"/>
<path d="M18 12.0001C18 12.2749 18.224 12.4979 18.5 12.4979H22.5C22.776 12.4979 23 12.2749 23 12.0001C23 11.7253 22.776 11.5023 22.5 11.5023H18.5C18.224 11.5023 18 11.7253 18 12.0001Z" fill="white"/>
<path d="M0 1.04828L0 22.9518C0 23.2266 0.224015 23.4496 0.500015 23.4496H14.5C14.775 23.4496 15 23.2266 15 22.9518V21.9562C15 21.6814 14.776 21.4583 14.5 21.4583C14.224 21.4583 14 21.6814 14 21.9562V22.454H0.999984L0.999984 1.54611H22V22.454H19V21.9562C19 21.6814 18.776 21.4583 18.5 21.4583C18.224 21.4583 18 21.6814 18 21.9562V22.9518C18 23.2266 18.224 23.4496 18.5 23.4496H22.5C22.776 23.4496 23 23.2266 23 22.9518V1.04828C23 0.773495 22.776 0.550463 22.5 0.550463H0.500015C0.224015 0.550463 0 0.773495 0 1.04828Z" fill="white"/>
<path d="M13.9987 11.0044V12.9957C13.9987 13.2705 14.2227 13.4935 14.4987 13.4935C14.7747 13.4935 14.9987 13.2705 14.9987 12.9957V11.0044C14.9987 10.7297 14.7747 10.5066 14.4987 10.5066C14.2227 10.5066 13.9987 10.7297 13.9987 11.0044Z" fill="white"/>
<path d="M18 11.0044V12.9957C18 13.2705 18.224 13.4935 18.5 13.4935C18.776 13.4935 19 13.2705 19 12.9957V11.0044C19 10.7297 18.776 10.5066 18.5 10.5066C18.224 10.5066 18 10.7297 18 11.0044Z" fill="white"/>
<path d="M8.99999 18.9693C8.99999 19.2441 9.22401 19.4672 9.50001 19.4672H11.5C11.776 19.4672 12 19.2441 12 18.9693C12 18.6945 11.776 18.4715 11.5 18.4715H9.49996C9.22401 18.4715 8.99999 18.6945 8.99999 18.9693Z" fill="white"/>
<path d="M8.99999 14.9869C8.99999 15.2617 9.22401 15.4847 9.50001 15.4847H11.5C11.776 15.4847 12 15.2617 12 14.9869C12 14.7121 11.776 14.4891 11.5 14.4891H9.49996C9.22401 14.4891 8.99999 14.7121 8.99999 14.9869Z" fill="white"/>
<path d="M8.99999 9.01325C8.99999 9.28804 9.22401 9.51107 9.50001 9.51107H11.5C11.776 9.51107 12 9.28804 12 9.01325C12 8.73846 11.776 8.51542 11.5 8.51542H9.49996C9.22401 8.51542 8.99999 8.73846 8.99999 9.01325Z" fill="white"/>
<path d="M8.99999 5.03072C8.99999 5.30551 9.22401 5.52855 9.50001 5.52855H11.5C11.776 5.52855 12 5.30551 12 5.03072C12 4.75593 11.776 4.5329 11.5 4.5329H9.50001C9.22401 4.53295 8.99999 4.75593 8.99999 5.03072Z" fill="white"/>
</svg>
